# xmcd CD database file
#
# Track frame offsets:
#	150
#	17315
#	34285
#
# Disc length: 684 seconds
#
# Revision: 0
# Processed by: cddbd v1.5.1PL0 Copyright (c) Steve Scherf et al.
# Submitted via: CDex 1.51
#
DISCID=1702aa03
DTITLE=浅野るり ( 一文字むつき ) - そばにいるわ 〜STANDING BY YOUR SIDE〜
DYEAR=2000
DGENRE=Game
TTITLE0=そばにいるわ 〜STANDING BY YOUR SIDE〜
TTITLE1=LOVE LOVE MOTION！ むつきバージョン
TTITLE2=そばにいるわ 〜STANDING BY YOUR SIDE〜 (カラオケ)
EXTD=YEAR: 2000
EXTT0=
EXTT1=
EXTT2=
PLAYORDER=
